<svg width="960" height="600" viewBox="0 0 960 600" fill="none" xmlns="http://www.w3.org/2000/svg">
  <rect width="960" height="600" rx="32" fill="url(#gradient)"/>
  <g opacity="0.7">
    <circle cx="160" cy="160" r="120" fill="rgba(34,211,238,0.15)"/>
    <circle cx="820" cy="180" r="160" fill="rgba(99,102,241,0.18)"/>
    <circle cx="520" cy="480" r="140" fill="rgba(15,23,42,0.25)"/>
  </g>
  <path d="M160 360C232 300 292 292 360 320C428 348 488 340 560 300C632 260 712 268 800 324" stroke="white" stroke-opacity="0.35" stroke-width="12" stroke-linecap="round" stroke-linejoin="round"/>
  <path d="M180 404C244 352 304 344 360 360C428 380 472 368 536 332C604 292 680 296 760 352" stroke="white" stroke-opacity="0.55" stroke-width="6" stroke-linecap="round" stroke-linejoin="round"/>
  <text x="120" y="120" fill="white" font-size="56" font-weight="700">FarmSync</text>
  <text x="120" y="170" fill="white" font-size="20" opacity="0.85">Real-time agritech marketplace and logistics</text>
  <defs>
    <linearGradient id="gradient" x1="80" y1="40" x2="920" y2="560" gradientUnits="userSpaceOnUse">
      <stop stop-color="#0F172A"/>
      <stop offset="0.45" stop-color="#1E293B"/>
      <stop offset="1" stop-color="#0B1120"/>
    </linearGradient>
  </defs>
</svg>
